<svg xmlns="http://www.w3.org/2000/svg" version="1.1" xmlns:xlink="http://www.w3.org/1999/xlink" width="15"
     height="15" x="0" y="0" viewBox="0 0 59 59" xml:space="preserve"
     class=""><g><g data-name="Layer 2"><path d="M29.5 0A29.5 29.5 0 1 0 59 29.5 29.54 29.54 0 0 0 29.5 0zm-.74 45.92a3 3 0 1 1 3-3 3 3 0 0 1-3 3zm5.14-14.39a3.75 3.75 0 0 0-2.64 3.6 2.5 2.5 0 0 1-5 0 8.73 8.73 0 0 1 6.16-8.38 3.76 3.76 0 0 0 2.65-3.6 5.57 5.57 0 0 0-11.13 0 2.5 2.5 0 0 1-5 0 10.57 10.57 0 0 1 21.13 0 8.74 8.74 0 0 1-6.17 8.38z" data-name="Layer 1" fill="#cbcbcb" opacity="1" data-original="#cbcbcb" class=""></path></g></g></svg>